#!OML:ASF F:\twosubjects\two\wednesday\Session 1\rory1.ASF
:FULLY-SPECIFIED
:DEGREES
405
root 4.77333 17.4036 -21.9026 3.96527 14.3638 0.409695
lowerback 8.27812 0.864758 0.542028
upperback 1.90012 1.20887 0.239295
thorax -2.66736 0.601141 -0.183597
lowerneck -12.9262 -1.27235 -3.19925
upperneck 10.0445 -0.982632 -1.07931
head 5.14989 -0.679528 0.100507
rclavicle -2.0276e-014 8.15017e-015
rhumerus -23.8675 2.66231 -75.9351
rradius 41.473
rwrist -2.43797
rhand -26.4818 42.8433
rfingers 7.12502
rthumb 0.0803721 12.8636
lclavicle -2.0276e-014 8.15017e-015
lhumerus -37.9057 8.20497 77.05
lradius 48.8736
lwrist 17.9255
lhand -27.9892 15.2071
lfingers 7.12502
lthumb -1.37548 45.1824
rfemur -16.5043 7.35247 13.3031
rtibia 37.1688
rfoot -21.1547 -8.41509
rtoes -5.17786
lfemur -26.6374 -2.53854 -4.07599
ltibia 39.1481
lfoot -16.9953 6.00508
ltoes -18.5386
406
root 4.72983 17.425 -21.9462 3.87515 14.3309 0.275811
lowerback 8.38682 0.983809 0.893166
upperback 1.94373 1.39473 0.138898
thorax -2.6704 0.691449 -0.505202
lowerneck -12.7884 -1.63974 -2.54975
upperneck 9.31712 -1.58796 -1.27809
head 4.89842 -0.955557 -0.110656
rclavicle 5.36719e-015 -5.36719e-015
rhumerus -24.1485 2.17527 -75.9458
rradius 41.908
rwrist -2.94792
rhand -27.079 43.1039
rfingers 7.12502
rthumb -0.496391 13.1247
lclavicle 5.36719e-015 -5.36719e-015
lhumerus -37.6241 7.12222 77.4192
lradius 48.9829
lwrist 17.7246
lhand -27.9756 14.6531
lfingers 7.12502
lthumb -1.36238 44.6285
rfemur -16.5455 7.41711 13.4762
rtibia 37.0151
rfoot -21.081 -7.9565
rtoes -4.03613
lfemur -26.5962 -2.16269 -4.3215
ltibia 39.8865
lfoot -17.0473 5.62713
ltoes -19.0355
407
root 4.68634 17.4398 -21.9878 3.82843 14.3551 0.11238
lowerback 8.46147 0.953706 1.05909
upperback 1.8928 1.37316 0.228349
thorax -2.76308 0.67905 -0.505911
lowerneck -12.178 -1.46617 -2.47133
upperneck 8.63339 -1.42059 -1.10473
head 4.58533 -0.850191 -0.0482166
rclavicle 2.98177e-015 5.56597e-015
rhumerus -24.5865 2.10601 -75.9193
rradius 42.5494
rwrist -3.28502
rhand -27.2446 42.9508
rfingers 7.12502
rthumb -0.656368 12.9721
lclavicle 2.98177e-015 5.56597e-015
lhumerus -37.7477 6.92212 77.7715
lradius 49.1242
lwrist 17.0476
lhand -27.1902 14.1665
lfingers 7.12502
lthumb -0.603821 44.1454
rfemur -16.5859 7.51475 13.7218
rtibia 36.8549
rfoot -20.8866 -7.93139
rtoes -5.06738
lfemur -26.671 -1.69961 -4.5338
ltibia 40.7365
lfoot -17.2853 4.98191
ltoes -19.4391
408
root 4.65053 17.4572 -22.0364 3.93053 14.3845 0.0938345
lowerback 8.34965 0.964289 1.12752
upperback 1.88216 1.39327 0.279428
thorax -2.71134 0.688979 -0.491614
lowerneck -12.0359 -1.23016 -2.32473
upperneck 8.64765 -1.11749 -1.24236
head 4.56295 -0.704777 -0.0909528
rclavicle -1.29707e-014 -4.37326e-015
rhumerus -24.7489 1.82662 -75.7895
rradius 42.8816
rwrist -3.63015
rhand -26.8505 43.0481
rfingers 7.12502
rthumb -0.275704 13.0685
lclavicle -1.29707e-014 -4.37326e-015
lhumerus -37.7298 6.59087 78.2014
lradius 49.3308
lwrist 16.2764
lhand -26.7556 14.2716
lfingers 7.12502
lthumb -0.183997 44.2513
rfemur -16.7686 7.5171 13.7537
rtibia 36.6768
rfoot -20.7593 -7.81824
rtoes -5.82342
lfemur -26.8299 -1.33066 -4.92965
ltibia 41.5674
lfoot -17.5843 4.24462
ltoes -19.4732
409
root 4.62163 17.476 -22.0896 4.24877 14.2715 0.222406
lowerback 8.11187 1.05902 1.1967
upperback 1.82805 1.5188 0.187791
thorax -2.6289 0.751037 -0.6335
lowerneck -12.5977 -0.912671 -2.39905
upperneck 9.621 -0.648497 -1.20343
head 4.95572 -0.48781 -0.037471
rclavicle 3.08116e-015 1.5704e-014
rhumerus -24.8404 1.30578 -75.6939
rradius 43.229
rwrist -4.01909
rhand -26.716 42.8697
rfingers 7.12502
rthumb -0.145836 12.89
lclavicle 3.08116e-015 1.5704e-014
lhumerus -37.5994 6.0303 78.5156
lradius 49.5034
lwrist 15.5945
lhand -26.3977 13.8808
lfingers 7.12502
lthumb 0.161653 43.8604
rfemur -17.2452 7.33802 13.5169
rtibia 36.5164
rfoot -20.9296 -6.97448
rtoes -2.5932
lfemur -27.1644 -0.850212 -5.53411
ltibia 42.4543
lfoot -17.817 3.53916
ltoes -20.3996
410
root 4.5895 17.4926 -22.1335 4.17281 14.3656 0.345692
lowerback 8.26504 1.04225 1.18519
upperback 1.80864 1.49716 0.161477
thorax -2.73401 0.739458 -0.655622
lowerneck -12.2273 -1.45307 -1.77779
upperneck 9.10657 -1.43496 -1.77369
head 4.73 -0.88123 -0.371096
rclavicle 8.99501e-015 -8.34896e-015
rhumerus -25.1782 0.946394 -75.6549
rradius 43.7575
rwrist -4.32767
rhand -27.3697 42.5702
rfingers 7.12502
rthumb -0.777187 12.5919
lclavicle 8.99501e-015 -8.34896e-015
lhumerus -37.6483 5.69071 78.79
lradius 49.5997
lwrist 14.8552
lhand -25.8601 12.911
lfingers 7.12502
lthumb 0.680832 42.8897
rfemur -17.1402 7.37535 13.407
rtibia 36.3076
rfoot -21.0542 -6.54083
rtoes 0.140568
lfemur -27.079 -0.641988 -6.10472
ltibia 43.2953
lfoot -18.1668 2.59125
ltoes -21.5059
411
root 4.58746 17.504 -22.2006 4.22406 13.9711 0.13078
lowerback 8.31585 1.02449 1.8055
upperback 1.82538 1.52857 0.199653
thorax -2.72889 0.751081 -0.968475
lowerneck -12.3742 -1.47409 -1.73236
upperneck 8.93785 -1.45344 -1.91862
head 4.70053 -0.896941 -0.425024
rclavicle 8.24956e-015 -5.96354e-015
rhumerus -25.0692 0.911329 -75.6538
rradius 43.9898
rwrist -4.54404
rhand -27.7437 42.5493
rfingers 7.12502
rthumb -1.13833 12.5726
lclavicle 8.24956e-015 -5.96354e-015
lhumerus -37.6111 5.65072 79.1391
lradius 49.834
lwrist 14.6142
lhand -25.7397 12.2359
lfingers 7.12502
lthumb 0.797196 42.2142
rfemur -17.4998 7.39573 13.3994
rtibia 36.0914
rfoot -20.6483 -5.92052
rtoes -0.176205
lfemur -27.2352 -0.540146 -6.41265
ltibia 44.2579
lfoot -18.6164 2.01262
ltoes -21.524
412
root 4.53977 17.5185 -22.224 4.00404 14.124 -0.187687
lowerback 8.17569 0.777086 1.70619
upperback 2.01095 1.19778 0.558313
thorax -2.47878 0.591441 -0.504052
lowerneck -12.3804 -1.10446 -2.11034
upperneck 8.55417 -0.90773 -1.84743
head 4.58635 -0.632894 -0.299017
rclavicle -4.86029e-014 1.11319e-014
rhumerus -24.8561 1.40158 -75.6355
rradius 44.2077
rwrist -5.13063
rhand -27.4359 42.8117
rfingers 7.12502
rthumb -0.841065 12.8336
lclavicle -4.86029e-014 1.11319e-014
lhumerus -37.7462 5.92769 79.5128
lradius 50.3834
lwrist 14.6123
lhand -26.1677 12.6759
lfingers 7.12502
lthumb 0.383806 42.6553
rfemur -17.1414 8.04401 13.8531
rtibia 35.8381
rfoot -20.8538 -6.00336
rtoes 1.50786
lfemur -27.0365 -0.24033 -6.40694
ltibia 45.1296
lfoot -18.837 0.625003
ltoes -21.8355
413
root 4.53014 17.5194 -22.292 4.46949 13.8831 -0.279847
lowerback 7.89206 0.816262 2.06685
upperback 1.74051 1.27625 0.572332
thorax -2.59132 0.625436 -0.697579
lowerneck -11.8076 -0.986225 -2.11931
upperneck 8.17393 -0.773929 -1.84302
head 4.37504 -0.559432 -0.281412
rclavicle -2.38542e-014 -6.36111e-015
rhumerus -25.2902 1.42337 -75.5318
rradius 44.5653
rwrist -5.92802
rhand -27.3762 43.3558
rfingers 7.12502
rthumb -0.78346 13.3775
lclavicle -2.38542e-014 -6.36111e-015
lhumerus -38.0479 5.47836 79.9355
lradius 50.8489
lwrist 14.3466
lhand -26.7742 13.662
lfingers 7.12502
lthumb -0.202019 43.6417
rfemur -17.911 7.96896 13.6328
rtibia 35.7093
rfoot -20.9373 -4.9232
rtoes 1.87886
lfemur -27.6815 0.0582086 -6.84687
ltibia 46.0854
lfoot -18.9655 -0.308095
ltoes -22.7463
414
root 4.51049 17.5262 -22.3381 4.31358 13.5428 -0.302862
lowerback 7.99458 0.997135 2.14447
upperback 1.90723 1.52178 0.53335
thorax -2.46631 0.749606 -0.80545
lowerneck -12.4071 -1.1378 -1.71917
upperneck 8.50453 -1.00043 -2.02385
head 4.57214 -0.676123 -0.423557
rclavicle -4.40805e-014 -5.96354e-015
rhumerus -25.2184 0.813567 -75.4557
rradius 44.7592
rwrist -6.18001
rhand -27.5862 43.5797
rfingers 7.12502
rthumb -0.98622 13.6022
lclavicle -4.40805e-014 -5.96354e-015
lhumerus -37.6343 4.80945 80.3188
lradius 50.8878
lwrist 14.2053
lhand -26.6974 13.2786
lfingers 7.12502
lthumb -0.127829 43.2583
rfemur -17.9714 8.15297 13.5789
rtibia 35.6645
rfoot -21.0279 -4.46156
rtoes -0.546934
lfemur -27.3498 0.230016 -7.27399
ltibia 46.8479
lfoot -19.1131 -1.44718
ltoes -23.8085
415
root 4.51438 17.5275 -22.4104 4.59328 13.2975 -0.201862
lowerback 8.00876 0.841749 2.39176
upperback 1.79837 1.33748 0.524987
thorax -2.58596 0.654208 -0.936244
lowerneck -13.0665 -0.391183 -2.35423
upperneck 9.70552 0.126107 -1.72178
head 5.05659 -0.145503 -0.146341
rclavicle 4.63168e-014 -1.98785e-015
rhumerus -25.0628 1.01712 -75.4999
rradius 44.9365
rwrist -6.17111
rhand -27.492 42.9157
rfingers 7.12502
rthumb -0.895295 12.9379
lclavicle 4.63168e-014 -1.98785e-015
lhumerus -37.7576 4.9837 80.4876
lradius 51.1141
lwrist 14.3394
lhand -26.3113 12.879
lfingers 7.12502
lthumb 0.245043 42.8586
rfemur -18.6834 7.8415 13.1582
rtibia 35.7031
rfoot -20.903 -3.54208
rtoes -1.70235
lfemur -27.6283 0.0976694 -7.93613
ltibia 47.629
lfoot -19.0128 -2.72543
ltoes -23.8181
416
root 4.47977 17.5263 -22.4538 4.32698 13.3869 0.239826
lowerback 8.44329 0.464859 1.62709
upperback 1.8528 0.788377 0.688272
thorax -2.8021 0.384938 -0.288089
lowerneck -11.7524 -0.379761 -1.91758
upperneck 7.87304 0.0644935 -2.47197
head 4.27396 -0.173552 -0.447291
rclavicle -9.64106e-015 8.74653e-015
rhumerus -24.8904 1.88809 -75.6328
rradius 45.0793
rwrist -6.43661
rhand -27.6006 42.7928
rfingers 7.12502
rthumb -1.00017 12.8154
lclavicle -9.64106e-015 8.74653e-015
lhumerus -38.2562 5.57884 80.5705
lradius 51.6325
lwrist 14.5826
lhand -26.4858 13.1744
lfingers 7.12502
lthumb 0.0765197 43.1541
rfemur -18.3171 8.30555 12.6808
rtibia 35.6496
rfoot -21.2031 -3.65601
rtoes -2.70642
lfemur -27.1684 0.00581909 -8.83452
ltibia 48.3294
lfoot -18.9881 -4.69206
ltoes -23.929
417
root 4.45144 17.5297 -22.5042 4.50198 13.1961 0.549219
lowerback 8.35318 0.0732574 0.931569
upperback 1.75692 0.216956 0.983522
thorax -2.86434 0.106029 0.468733
lowerneck -10.8672 0.0128728 -2.29161
upperneck 6.62499 0.609527 -2.68464
head 4.14298 0.102005 -0.449932
rclavicle -3.18055e-015 -2.78299e-014
rhumerus -24.538 3.26086 -75.6836
rradius 44.9394
rwrist -6.5433
rhand -27.7759 43.4724
rfingers 7.12502
rthumb -1.16951 13.4959
lclavicle -3.18055e-015 -2.78299e-014
lhumerus -38.8477 6.79794 80.6755
lradius 52.0293
lwrist 14.7227
lhand -26.4982 12.6981
lfingers 7.12502
lthumb 0.0645311 42.6779
rfemur -18.5026 8.58378 12.2547
rtibia 35.5012
rfoot -21.5408 -3.64215
rtoes -4.97067
lfemur -27.2883 0.281052 -9.63748
ltibia 49.0938
lfoot -18.9324 -6.40362
ltoes -24.8984
418
root 4.44488 17.5338 -22.5549 4.68859 12.713 0.446184
lowerback 8.02059 0.519443 1.20628
upperback 1.81368 0.81826 0.747825
thorax -2.61419 0.4034 0.0107971
lowerneck -11.5749 -0.381165 -1.73024
upperneck 7.23849 0.0237998 -2.55658
head 4.50749 -0.179178 -0.556156
rclavicle 3.42904e-014 1.35174e-014
rhumerus -24.8126 1.80874 -75.6038
rradius 45.1755
rwrist -6.36367
rhand -27.5702 43.1021
rfingers 7.12502
rthumb -0.970804 13.1245
lclavicle 3.42904e-014 1.35174e-014
lhumerus -38.3413 5.34114 81.0143
lradius 52.0487
lwrist 14.8564
lhand -26.1742 12.6546
lfingers 7.12502
lthumb 0.377453 42.634
rfemur -18.8346 8.79665 12.1569
rtibia 35.2324
rfoot -21.9121 -3.2158
rtoes -6.70224
lfemur -27.4997 0.575874 -10.0599
ltibia 49.9238
lfoot -18.7013 -8.18483
ltoes -25.2079
